<?xml version="1.0" encoding="UTF-8" standalone="no"?>
<svg
   id="Layer_1"
   viewBox="0 0 59.634808 59.315161"
   version="1.1"
   sodipodi:docname="SL-Logo-svg.svg"
   width="59.634808"
   height="59.315163"
   inkscape:version="1.2.1 (9c6d41e410, 2022-07-14)"
   xmlns:inkscape="http://www.inkscape.org/namespaces/inkscape"
   xmlns:sodipodi="http://sodipodi.sourceforge.net/DTD/sodipodi-0.dtd"
   xmlns="http://www.w3.org/2000/svg"
   xmlns:svg="http://www.w3.org/2000/svg">
  <defs
     id="defs15" />
  <sodipodi:namedview
     id="namedview13"
     pagecolor="#ffffff"
     bordercolor="#000000"
     borderopacity="0.25"
     inkscape:showpageshadow="2"
     inkscape:pageopacity="0.0"
     inkscape:pagecheckerboard="0"
     inkscape:deskcolor="#d1d1d1"
     showgrid="false"
     inkscape:zoom="5.0840336"
     inkscape:cx="-1.4752066"
     inkscape:cy="29.700826"
     inkscape:window-width="1920"
     inkscape:window-height="1057"
     inkscape:window-x="1024"
     inkscape:window-y="2152"
     inkscape:window-maximized="1"
     inkscape:current-layer="Layer_1" />
  <path
     style="fill:#ed1a3b"
     d="m 5.9598076,25.604052 c 7.2000004,-7.9 15.1000004,-9.5 21.7000004,-15.6 4.2,-3.8000002 5.5,-7.4000002 6.3,-9.30000016 0.1,-0.1 0.1,-0.2 0.1,-0.3 -0.1,-0.1 -0.2,-0.1 -0.3,-0.1 -1.7,-0.3 -4.5,-0.4 -6.7,-0.2 -1.8,0.2 -3.9,0.5 -5.2,0.89999996 -0.1,0 -0.2,0.1 -0.3,0.1 -0.1,0.1 -0.1,0.1 -0.1,0.2 -1.1,3.9 -7.3,8.3 -8.8,9.5000002 -2.2,1.8 -4.1000004,3.4 -6.0000004,5.4 -1.6,1.7 -3.2,3.7 -4.3,5.7 -1.2,2 -1.79999998,4.1 -2.09999998,6.1 -0.3,1.7 -0.3,3.3 -0.2,4.5 v 0.4 c 0.2,1.8 0.5,2.6 0.5,2.7 0,0.2 0.1,0.3 0.2,0.3 0.1,0 0.1,-0.2 0.2,-0.3 0,-0.1 0.19999998,-0.8 0.39999998,-1.4 0.2,-0.7 0.3,-1 0.5,-1.7 0.5,-1.7 1.6,-4.2 4.1,-6.9 z m 53.5000004,1 c 0,-0.1 0,-0.3 -0.1,-0.3 -0.1,-0.1 -0.1,-0.1 -0.3,-0.1 -1.8,-0.1 -3.8,-0.2 -6.1,-0.2 -12.9,0.2 -29.3,3.4 -36.6,10.5 -3.4,3.3 -5.1,7.6 -3.8,12.9 1.4,6 6.4,8.7 9.6,9.6 1.6,0.4 2.8,0.3 2.8,0.3 0,0 0.2,0 0.2,-0.1 0,-0.1 -0.2,-0.2 -0.2,-0.2 0,0 -0.6,-0.5 -0.9,-0.8 -0.3,-0.4 -0.5,-0.6 -0.8,-1 -0.5,-0.7 -1,-1.7 -1.4,-3.1 -0.8,-3 0.1,-5.7 2.2,-8 3.6,-3.8 11.7,-6.3 25.7,-6.3 l 7.7,0.1 c 0,0 0.2,0 0.3,-0.1 0.1,-0.1 0.1,-0.1 0.2,-0.3 0.5,-1.3 1.1,-3.7 1.4,-6.6 0.4,-1.9 0.3,-4.1 0.1,-6.3 z"
     id="path2" />
  <path
     style="fill:#ed1a3b"
     d="m 36.659808,24.904052 c 9.7,-1.1 17,-1.2 22.1,-0.6 h 0.3 v -0.3 c -0.5,-2.7 -1.7,-6 -3.1,-8.5 -0.3,-0.6 -0.8,-1.4 -1.2,-2 -0.1,-0.2 -0.1,-0.1 -0.2,-0.2 -0.1,-0.1 -0.4,-0.1 -0.4,-0.1 -0.8,-0.1 -2.7,-0.2 -5,-0.2 -4,-0.1 -8.9,0.4 -14.4,1.5 -8.1,1.6 -15.1,4.3 -20.8,8 -6.1000004,4 -10.7000004,8.5 -12.4000004,15.7 -0.3,1.1 0.4,3.2 1.2,4.8 0.5,1 1,1.8 1.5,2.5 l 0.2,0.2 c 0.1,0 0.1,-0.1 0.1,-0.2 0.1,-0.5 0.2,-1.5 0.8,-2.9 0.9,-2.6 3.1,-8 12.4000004,-12.4 6.1,-3.1 12.7,-4.5 18.9,-5.3 z"
     id="path4" />
  <path
     style="fill:#ffffff"
     d="m 53.859808,28.404052 h -2.7 v 3.1 h -3.1 v 2.7 h 3.1 v 3.1 h 2.7 v -3.1 h 3.1 v -2.7 h -3.1 z"
     id="path6" />
</svg>
